A classical 1940 Czech comedy based on the story of Baron Munchhausen, starring the king of comedy Vlasta Burian.

Black and white. Czech language with English subtitles.

Format                           : MPEG-4
Format profile                   : Base Media / Version 2
Codec ID                         : mp42
File size                        : 614 MiB
Duration                         : 1h 35mn
Overall bit rate                 : 900 Kbps
Encoded date                     : UTC 2009-07-11 18:41:40
Tagged date                      : UTC 2009-07-11 18:41:40

Video
ID                               : 2
Format                           : AVC
Format/Info                      : Advanced Video Codec
Format profile                   : Main@L3.0
Format settings, CABAC           : Yes
Format settings, ReFrames        : 2 frames
Codec ID                         : avc1
Codec ID/Info                    : Advanced Video Coding
Duration                         : 1h 35mn
Bit rate mode                    : Variable
Bit rate                         : 767 Kbps
Width                            : 752 pixels
Height                           : 544 pixels
Display aspect ratio             : 1.382
Frame rate mode                  : Constant
Frame rate                       : 25.000 fps
Resolution                       : 24 bits
Colorimetry                      : 4:2:0
Scan type                        : Progressive
Bits/(Pixel*Frame)               : 0.075
Stream size                      : 524 MiB (85%)
Language                         : Czech
Encoded date                     : UTC 2009-07-11 18:41:40
Tagged date                      : UTC 2009-07-11 18:41:40

Audio
ID                               : 1
Format                           : AAC
Format/Info                      : Advanced Audio Codec
Format version                   : Version 4
Format profile                   : LC
Format settings, SBR             : No
Codec ID                         : 40
Duration                         : 1h 35mn
Bit rate mode                    : Constant
Bit rate                         : 128 Kbps
Channel(s)                       : 2 channels
Channel positions                : L R
Sampling rate                    : 48.0 KHz
Resolution                       : 16 bits
Stream size                      : 87.5 MiB (14%)
Language                         : Czech
Encoded date                     : UTC 2009-07-11 18:41:40
Tagged date                      : UTC 2009-07-11 18:41:40

